<mxfile host="65bd71144e">
    <diagram id="zNX16B290x4Jp7J3eFOB" name="Page-1">
        <mxGraphModel dx="1329" dy="932" grid="1" gridSize="10" guides="1" tooltips="1" connect="1" arrows="1" fold="1" page="1" pageScale="1" pageWidth="850" pageHeight="1100" math="0" shadow="0">
            <root>
                <mxCell id="0"/>
                <mxCell id="1" parent="0"/>
                <mxCell id="6" style="edgeStyle=none;html=1;exitX=1;exitY=0.25;exitDx=0;exitDy=0;exitPerimeter=0;entryX=0;entryY=0.25;entryDx=0;entryDy=0;entryPerimeter=0;fontFamily=Helvetica;fontSize=12;fontColor=default;startSize=23;" edge="1" parent="1" source="2" target="3">
                    <mxGeometry relative="1" as="geometry"/>
                </mxCell>
                <mxCell id="7" style="edgeStyle=none;html=1;exitX=1;exitY=0.75;exitDx=0;exitDy=0;exitPerimeter=0;entryX=0;entryY=0.75;entryDx=0;entryDy=0;entryPerimeter=0;fontFamily=Helvetica;fontSize=12;fontColor=default;startSize=23;" edge="1" parent="1" source="2" target="3">
                    <mxGeometry relative="1" as="geometry"/>
                </mxCell>
                <mxCell id="2" value="ลูกค้าทั่วไป" style="rounded=0;whiteSpace=wrap;html=1;points=[[0.33,1,0,0,0],[0.67,1,0,0,0],[1,0.25,0,0,0],[1,0.5,0,0,0],[1,0.75,0,0,0]];" vertex="1" parent="1">
                    <mxGeometry x="105" y="80" width="80" height="80" as="geometry"/>
                </mxCell>
                <mxCell id="12" style="edgeStyle=none;html=1;exitX=1;exitY=0.5;exitDx=0;exitDy=0;exitPerimeter=0;entryX=0;entryY=0.5;entryDx=0;entryDy=0;fontFamily=Helvetica;fontSize=12;fontColor=default;startSize=23;" edge="1" parent="1" source="3" target="10">
                    <mxGeometry relative="1" as="geometry"/>
                </mxCell>
                <mxCell id="14" style="edgeStyle=none;html=1;exitX=0.33;exitY=1;exitDx=0;exitDy=0;exitPerimeter=0;entryX=0.67;entryY=1;entryDx=0;entryDy=0;entryPerimeter=0;fontFamily=Helvetica;fontSize=12;fontColor=default;startSize=23;" edge="1" parent="1" source="3" target="2">
                    <mxGeometry relative="1" as="geometry">
                        <Array as="points">
                            <mxPoint x="385" y="180"/>
                            <mxPoint x="159" y="180"/>
                        </Array>
                    </mxGeometry>
                </mxCell>
                <mxCell id="15" style="edgeStyle=none;html=1;exitX=0.67;exitY=1;exitDx=0;exitDy=0;exitPerimeter=0;entryX=0.33;entryY=1;entryDx=0;entryDy=0;entryPerimeter=0;fontFamily=Helvetica;fontSize=12;fontColor=default;startSize=23;" edge="1" parent="1" source="3" target="2">
                    <mxGeometry relative="1" as="geometry">
                        <Array as="points">
                            <mxPoint x="425" y="200"/>
                            <mxPoint x="131" y="200"/>
                        </Array>
                    </mxGeometry>
                </mxCell>
                <mxCell id="3" value="1" style="swimlane;rounded=1;points=[[0,0.25,0,0,0],[0,0.5,0,0,0],[0,0.75,0,0,0],[0.33,1,0,0,0],[0.67,1,0,0,0],[1,0.25,0,0,0],[1,0.5,0,0,0],[1,0.75,0,0,0]];startSize=23;" vertex="1" parent="1">
                    <mxGeometry x="345" y="80" width="120" height="80" as="geometry"/>
                </mxCell>
                <mxCell id="4" value="สมัครสมาชิก" style="text;html=1;align=center;verticalAlign=middle;resizable=0;points=[];autosize=1;strokeColor=none;fillColor=none;" vertex="1" parent="3">
                    <mxGeometry x="15" y="40" width="90" height="30" as="geometry"/>
                </mxCell>
                <mxCell id="8" value="ข้อมูลลูกค้า" style="text;html=1;align=center;verticalAlign=middle;resizable=0;points=[];autosize=1;strokeColor=none;fillColor=none;fontSize=12;fontFamily=Helvetica;fontColor=default;" vertex="1" parent="1">
                    <mxGeometry x="225" y="80" width="80" height="30" as="geometry"/>
                </mxCell>
                <mxCell id="9" value="Username, Password" style="text;html=1;align=center;verticalAlign=middle;resizable=0;points=[];autosize=1;strokeColor=none;fillColor=none;fontSize=12;fontFamily=Helvetica;fontColor=default;" vertex="1" parent="1">
                    <mxGeometry x="195" y="120" width="140" height="30" as="geometry"/>
                </mxCell>
                <mxCell id="10" value="D1" style="html=1;dashed=0;whitespace=wrap;shape=mxgraph.dfd.dataStoreID;align=left;spacingLeft=3;points=[[0,0],[0.5,0],[1,0],[0,0.5],[1,0.5],[0,1],[0.5,1],[1,1]];rounded=1;strokeColor=default;fontFamily=Helvetica;fontSize=12;fontColor=default;startSize=23;fillColor=default;" vertex="1" parent="1">
                    <mxGeometry x="545" y="105" width="120" height="30" as="geometry"/>
                </mxCell>
                <mxCell id="11" value="เเฟ้มข้อมูลสมาชิก" style="text;html=1;align=center;verticalAlign=middle;resizable=0;points=[];autosize=1;strokeColor=none;fillColor=none;fontSize=12;fontFamily=Helvetica;fontColor=default;" vertex="1" parent="1">
                    <mxGeometry x="565" y="105" width="110" height="30" as="geometry"/>
                </mxCell>
                <mxCell id="16" value="ข้อมูลสมาชิก" style="text;html=1;align=center;verticalAlign=middle;resizable=0;points=[];autosize=1;strokeColor=none;fillColor=none;fontSize=12;fontFamily=Helvetica;fontColor=default;" vertex="1" parent="1">
                    <mxGeometry x="455" y="100" width="90" height="30" as="geometry"/>
                </mxCell>
                <mxCell id="17" value="ผลการสมัครสมาชิก" style="text;html=1;align=center;verticalAlign=middle;resizable=0;points=[];autosize=1;strokeColor=none;fillColor=none;" vertex="1" parent="1">
                    <mxGeometry x="205" y="160" width="120" height="30" as="geometry"/>
                </mxCell>
                <mxCell id="18" value="ออกใบเสร็จ" style="text;html=1;align=center;verticalAlign=middle;resizable=0;points=[];autosize=1;strokeColor=none;fillColor=none;" vertex="1" parent="1">
                    <mxGeometry x="225" y="180" width="80" height="30" as="geometry"/>
                </mxCell>
                <mxCell id="30" style="edgeStyle=none;html=1;exitX=0.33;exitY=1;exitDx=0;exitDy=0;exitPerimeter=0;entryX=0.8;entryY=1;entryDx=0;entryDy=0;entryPerimeter=0;fontFamily=Helvetica;fontSize=12;fontColor=default;startSize=23;" edge="1" parent="1" source="19" target="21">
                    <mxGeometry relative="1" as="geometry">
                        <Array as="points">
                            <mxPoint x="385" y="400"/>
                            <mxPoint x="149" y="400"/>
                        </Array>
                    </mxGeometry>
                </mxCell>
                <mxCell id="31" style="edgeStyle=none;html=1;exitX=0.67;exitY=1;exitDx=0;exitDy=0;exitPerimeter=0;entryX=0.6;entryY=1;entryDx=0;entryDy=0;entryPerimeter=0;fontFamily=Helvetica;fontSize=12;fontColor=default;startSize=23;" edge="1" parent="1" source="19" target="21">
                    <mxGeometry relative="1" as="geometry">
                        <Array as="points">
                            <mxPoint x="425" y="420"/>
                            <mxPoint x="133" y="420"/>
                        </Array>
                    </mxGeometry>
                </mxCell>
                <mxCell id="42" style="edgeStyle=none;html=1;exitX=1;exitY=0.33;exitDx=0;exitDy=0;exitPerimeter=0;entryX=0;entryY=0.5;entryDx=0;entryDy=0;fontFamily=Helvetica;fontSize=12;fontColor=default;startSize=23;" edge="1" parent="1" source="19" target="36">
                    <mxGeometry relative="1" as="geometry">
                        <mxPoint x="525" y="326.4" as="sourcePoint"/>
                        <Array as="points">
                            <mxPoint x="565" y="326"/>
                            <mxPoint x="565" y="205"/>
                        </Array>
                    </mxGeometry>
                </mxCell>
                <mxCell id="19" value="2" style="swimlane;rounded=1;points=[[0.2,0,0,0,0],[0.33,1,0,0,0],[0.4,0,0,0,0],[0.6,0,0,0,0],[0.67,1,0,0,0],[0.8,0,0,0,0],[1,0.33,0,0,0],[1,0.67,0,0,0]];startSize=23;" vertex="1" parent="1">
                    <mxGeometry x="345" y="300" width="120" height="80" as="geometry"/>
                </mxCell>
                <mxCell id="20" value="จอง" style="text;html=1;align=center;verticalAlign=middle;resizable=0;points=[];autosize=1;strokeColor=none;fillColor=none;" vertex="1" parent="19">
                    <mxGeometry x="40" y="40" width="40" height="30" as="geometry"/>
                </mxCell>
                <mxCell id="22" style="edgeStyle=none;html=1;exitX=0.8;exitY=0;exitDx=0;exitDy=0;exitPerimeter=0;entryX=0.2;entryY=0;entryDx=0;entryDy=0;entryPerimeter=0;fontFamily=Helvetica;fontSize=12;fontColor=default;startSize=23;" edge="1" parent="1" source="21" target="19">
                    <mxGeometry relative="1" as="geometry">
                        <Array as="points">
                            <mxPoint x="149" y="280"/>
                            <mxPoint x="369" y="280"/>
                        </Array>
                    </mxGeometry>
                </mxCell>
                <mxCell id="23" style="edgeStyle=none;html=1;exitX=0.6;exitY=0;exitDx=0;exitDy=0;exitPerimeter=0;entryX=0.4;entryY=0;entryDx=0;entryDy=0;entryPerimeter=0;fontFamily=Helvetica;fontSize=12;fontColor=default;startSize=23;" edge="1" parent="1" source="21" target="19">
                    <mxGeometry relative="1" as="geometry">
                        <Array as="points">
                            <mxPoint x="133" y="260"/>
                            <mxPoint x="393" y="260"/>
                        </Array>
                    </mxGeometry>
                </mxCell>
                <mxCell id="24" style="edgeStyle=none;html=1;exitX=0.4;exitY=0;exitDx=0;exitDy=0;exitPerimeter=0;entryX=0.6;entryY=0;entryDx=0;entryDy=0;entryPerimeter=0;fontFamily=Helvetica;fontSize=12;fontColor=default;startSize=23;" edge="1" parent="1" source="21" target="19">
                    <mxGeometry relative="1" as="geometry">
                        <Array as="points">
                            <mxPoint x="117" y="240"/>
                            <mxPoint x="417" y="240"/>
                        </Array>
                    </mxGeometry>
                </mxCell>
                <mxCell id="25" style="edgeStyle=none;html=1;exitX=0.2;exitY=0;exitDx=0;exitDy=0;exitPerimeter=0;entryX=0.8;entryY=0;entryDx=0;entryDy=0;entryPerimeter=0;fontFamily=Helvetica;fontSize=12;fontColor=default;startSize=23;" edge="1" parent="1" source="21" target="19">
                    <mxGeometry relative="1" as="geometry">
                        <Array as="points">
                            <mxPoint x="101" y="220"/>
                            <mxPoint x="440" y="220"/>
                        </Array>
                    </mxGeometry>
                </mxCell>
                <mxCell id="47" style="edgeStyle=none;html=1;exitX=0.4;exitY=1;exitDx=0;exitDy=0;exitPerimeter=0;entryX=0.2;entryY=0;entryDx=0;entryDy=0;entryPerimeter=0;fontFamily=Helvetica;fontSize=12;fontColor=default;startSize=23;" edge="1" parent="1" source="21" target="34">
                    <mxGeometry relative="1" as="geometry">
                        <Array as="points">
                            <mxPoint x="117" y="460"/>
                            <mxPoint x="369" y="460"/>
                        </Array>
                    </mxGeometry>
                </mxCell>
                <mxCell id="21" value="ลูกค้าทั่วไป" style="rounded=0;whiteSpace=wrap;html=1;points=[[0.2,0,0,0,0],[0.2,1,0,0,0],[0.4,0,0,0,0],[0.4,1,0,0,0],[0.6,0,0,0,0],[0.6,1,0,0,0],[0.8,0,0,0,0],[0.8,1,0,0,0]];" vertex="1" parent="1">
                    <mxGeometry x="85" y="300" width="80" height="80" as="geometry"/>
                </mxCell>
                <mxCell id="26" value="จ่ายชำระเงิน" style="text;html=1;align=center;verticalAlign=middle;resizable=0;points=[];autosize=1;strokeColor=none;fillColor=none;fontSize=12;fontFamily=Helvetica;fontColor=default;" vertex="1" parent="1">
                    <mxGeometry x="190" y="200" width="80" height="30" as="geometry"/>
                </mxCell>
                <mxCell id="27" value="ข้อมูลการจอง" style="text;html=1;align=center;verticalAlign=middle;resizable=0;points=[];autosize=1;strokeColor=none;fillColor=none;fontSize=12;fontFamily=Helvetica;fontColor=default;" vertex="1" parent="1">
                    <mxGeometry x="185" y="220" width="90" height="30" as="geometry"/>
                </mxCell>
                <mxCell id="28" value="ข้อมูลลูกค้า" style="text;html=1;align=center;verticalAlign=middle;resizable=0;points=[];autosize=1;strokeColor=none;fillColor=none;fontSize=12;fontFamily=Helvetica;fontColor=default;" vertex="1" parent="1">
                    <mxGeometry x="190" y="240" width="80" height="30" as="geometry"/>
                </mxCell>
                <mxCell id="29" value="สถานะห้องพัก" style="text;html=1;align=center;verticalAlign=middle;resizable=0;points=[];autosize=1;strokeColor=none;fillColor=none;fontSize=12;fontFamily=Helvetica;fontColor=default;" vertex="1" parent="1">
                    <mxGeometry x="185" y="260" width="90" height="30" as="geometry"/>
                </mxCell>
                <mxCell id="32" value="สถานะห้องพัก" style="text;html=1;align=center;verticalAlign=middle;resizable=0;points=[];autosize=1;strokeColor=none;fillColor=none;fontSize=12;fontFamily=Helvetica;fontColor=default;" vertex="1" parent="1">
                    <mxGeometry x="220" y="380" width="90" height="30" as="geometry"/>
                </mxCell>
                <mxCell id="33" value="เลขที่การจอง" style="text;html=1;align=center;verticalAlign=middle;resizable=0;points=[];autosize=1;strokeColor=none;fillColor=none;fontSize=12;fontFamily=Helvetica;fontColor=default;" vertex="1" parent="1">
                    <mxGeometry x="220" y="400" width="90" height="30" as="geometry"/>
                </mxCell>
                <mxCell id="49" style="edgeStyle=none;html=1;exitX=0;exitY=0.25;exitDx=0;exitDy=0;exitPerimeter=0;entryX=0.2;entryY=1;entryDx=0;entryDy=0;entryPerimeter=0;fontFamily=Helvetica;fontSize=12;fontColor=default;startSize=23;" edge="1" parent="1" source="34" target="21">
                    <mxGeometry relative="1" as="geometry">
                        <Array as="points">
                            <mxPoint x="101" y="500"/>
                        </Array>
                    </mxGeometry>
                </mxCell>
                <mxCell id="53" style="edgeStyle=none;html=1;exitX=1;exitY=0.25;exitDx=0;exitDy=0;exitPerimeter=0;entryX=0;entryY=0.5;entryDx=0;entryDy=0;fontFamily=Helvetica;fontSize=12;fontColor=default;startSize=23;" edge="1" parent="1" source="34" target="51">
                    <mxGeometry relative="1" as="geometry">
                        <Array as="points">
                            <mxPoint x="565" y="500"/>
                            <mxPoint x="565" y="475"/>
                        </Array>
                    </mxGeometry>
                </mxCell>
                <mxCell id="57" style="edgeStyle=none;html=1;exitX=1;exitY=0.75;exitDx=0;exitDy=0;exitPerimeter=0;entryX=0;entryY=0.5;entryDx=0;entryDy=0;fontFamily=Helvetica;fontSize=12;fontColor=default;startSize=23;" edge="1" parent="1" source="34" target="55">
                    <mxGeometry relative="1" as="geometry">
                        <Array as="points">
                            <mxPoint x="565" y="540"/>
                            <mxPoint x="565" y="565"/>
                        </Array>
                    </mxGeometry>
                </mxCell>
                <mxCell id="75" style="edgeStyle=none;html=1;exitX=0.25;exitY=1;exitDx=0;exitDy=0;exitPerimeter=0;entryX=1;entryY=0.5;entryDx=0;entryDy=0;entryPerimeter=0;fontFamily=Helvetica;fontSize=12;fontColor=default;startSize=23;" edge="1" parent="1" source="34" target="60">
                    <mxGeometry relative="1" as="geometry">
                        <Array as="points">
                            <mxPoint x="375" y="620"/>
                        </Array>
                    </mxGeometry>
                </mxCell>
                <mxCell id="76" style="edgeStyle=none;html=1;exitX=0.5;exitY=1;exitDx=0;exitDy=0;exitPerimeter=0;entryX=1;entryY=0.75;entryDx=0;entryDy=0;entryPerimeter=0;fontFamily=Helvetica;fontSize=12;fontColor=default;startSize=23;" edge="1" parent="1" source="34" target="60">
                    <mxGeometry relative="1" as="geometry">
                        <Array as="points">
                            <mxPoint x="405" y="640"/>
                        </Array>
                    </mxGeometry>
                </mxCell>
                <mxCell id="34" value="3" style="swimlane;rounded=1;points=[[0,0.25,0,0,0],[0,0.5,0,0,0],[0,0.75,0,0,0],[0.2,0,0,0,0],[0.25,1,0,0,0],[0.4,0,0,0,0],[0.5,1,0,0,0],[0.6,0,0,0,0],[0.75,1,0,0,0],[0.8,0,0,0,0],[1,0.25,0,0,0],[1,0.5,0,0,0],[1,0.75,0,0,0]];startSize=23;" vertex="1" parent="1">
                    <mxGeometry x="345" y="480" width="120" height="80" as="geometry"/>
                </mxCell>
                <mxCell id="35" value="เช่า / ทำ สัญญา" style="text;html=1;align=center;verticalAlign=middle;resizable=0;points=[];autosize=1;strokeColor=none;fillColor=none;" vertex="1" parent="34">
                    <mxGeometry x="10" y="40" width="100" height="30" as="geometry"/>
                </mxCell>
                <mxCell id="36" value="D2" style="html=1;dashed=0;whitespace=wrap;shape=mxgraph.dfd.dataStoreID;align=left;spacingLeft=3;points=[[0,0],[0.5,0],[1,0],[0,0.5],[1,0.5],[0,1],[0.5,1],[1,1]];rounded=1;strokeColor=default;fontFamily=Helvetica;fontSize=12;fontColor=default;startSize=23;fillColor=default;" vertex="1" parent="1">
                    <mxGeometry x="605" y="190" width="120" height="30" as="geometry"/>
                </mxCell>
                <mxCell id="120" style="edgeStyle=none;html=1;entryX=1;entryY=0.5;entryDx=0;entryDy=0;entryPerimeter=0;fontFamily=Helvetica;fontSize=12;fontColor=default;startSize=23;" edge="1" parent="1" source="38" target="70">
                    <mxGeometry relative="1" as="geometry">
                        <Array as="points">
                            <mxPoint x="680" y="170"/>
                            <mxPoint x="805" y="170"/>
                            <mxPoint x="805" y="780"/>
                        </Array>
                    </mxGeometry>
                </mxCell>
                <mxCell id="122" style="edgeStyle=none;html=1;entryX=1;entryY=0.5;entryDx=0;entryDy=0;entryPerimeter=0;fontFamily=Helvetica;fontSize=12;fontColor=default;startSize=23;" edge="1" parent="1" source="38" target="34">
                    <mxGeometry relative="1" as="geometry">
                        <Array as="points">
                            <mxPoint x="765" y="205"/>
                            <mxPoint x="765" y="520"/>
                        </Array>
                    </mxGeometry>
                </mxCell>
                <mxCell id="38" value="เเฟ้มข้อมูลการจอง" style="text;html=1;align=center;verticalAlign=middle;resizable=0;points=[];autosize=1;strokeColor=none;fillColor=none;fontSize=12;fontFamily=Helvetica;fontColor=default;" vertex="1" parent="1">
                    <mxGeometry x="625" y="190" width="110" height="30" as="geometry"/>
                </mxCell>
                <mxCell id="43" style="edgeStyle=none;html=1;exitX=0;exitY=0.5;exitDx=0;exitDy=0;entryX=1;entryY=0.67;entryDx=0;entryDy=0;entryPerimeter=0;fontFamily=Helvetica;fontSize=12;fontColor=default;startSize=23;" edge="1" parent="1" source="39" target="19">
                    <mxGeometry relative="1" as="geometry">
                        <mxPoint x="525" y="353.6" as="targetPoint"/>
                        <Array as="points">
                            <mxPoint x="585" y="285"/>
                            <mxPoint x="585" y="354"/>
                        </Array>
                    </mxGeometry>
                </mxCell>
                <mxCell id="39" value="D3" style="html=1;dashed=0;whitespace=wrap;shape=mxgraph.dfd.dataStoreID;align=left;spacingLeft=3;points=[[0,0],[0.5,0],[1,0],[0,0.5],[1,0.5],[0,1],[0.5,1],[1,1]];rounded=1;strokeColor=default;fontFamily=Helvetica;fontSize=12;fontColor=default;startSize=23;fillColor=default;" vertex="1" parent="1">
                    <mxGeometry x="605" y="270" width="120" height="30" as="geometry"/>
                </mxCell>
                <mxCell id="40" value="เเฟ้มข้อมูลห้องพัก" style="text;html=1;align=center;verticalAlign=middle;resizable=0;points=[];autosize=1;strokeColor=none;fillColor=none;fontSize=12;fontFamily=Helvetica;fontColor=default;" vertex="1" parent="1">
                    <mxGeometry x="625" y="270" width="110" height="30" as="geometry"/>
                </mxCell>
                <mxCell id="44" value="ข้อมูลการจอง" style="text;html=1;align=center;verticalAlign=middle;resizable=0;points=[];autosize=1;strokeColor=none;fillColor=none;fontSize=12;fontFamily=Helvetica;fontColor=default;" vertex="1" parent="1">
                    <mxGeometry x="465" y="306" width="90" height="30" as="geometry"/>
                </mxCell>
                <mxCell id="45" value="ข้อมูลห้องพัก" style="text;html=1;align=center;verticalAlign=middle;resizable=0;points=[];autosize=1;strokeColor=none;fillColor=none;fontSize=12;fontFamily=Helvetica;fontColor=default;" vertex="1" parent="1">
                    <mxGeometry x="465" y="333" width="90" height="30" as="geometry"/>
                </mxCell>
                <mxCell id="48" value="ข้อมูลลูกค้า" style="text;html=1;align=center;verticalAlign=middle;resizable=0;points=[];autosize=1;strokeColor=none;fillColor=none;fontSize=12;fontFamily=Helvetica;fontColor=default;" vertex="1" parent="1">
                    <mxGeometry x="223" y="440" width="80" height="30" as="geometry"/>
                </mxCell>
                <mxCell id="50" value="รายละเอียดการเช่า" style="text;html=1;align=center;verticalAlign=middle;resizable=0;points=[];autosize=1;strokeColor=none;fillColor=none;fontSize=12;fontFamily=Helvetica;fontColor=default;" vertex="1" parent="1">
                    <mxGeometry x="203" y="480" width="120" height="30" as="geometry"/>
                </mxCell>
                <mxCell id="51" value="D4" style="html=1;dashed=0;whitespace=wrap;shape=mxgraph.dfd.dataStoreID;align=left;spacingLeft=3;points=[[0,0],[0.5,0],[1,0],[0,0.5],[1,0.5],[0,1],[0.5,1],[1,1]];rounded=1;strokeColor=default;fontFamily=Helvetica;fontSize=12;fontColor=default;startSize=23;fillColor=default;" vertex="1" parent="1">
                    <mxGeometry x="605" y="460" width="120" height="30" as="geometry"/>
                </mxCell>
                <mxCell id="52" value="เเฟ้มข้อมูลการเช่า" style="text;html=1;align=center;verticalAlign=middle;resizable=0;points=[];autosize=1;strokeColor=none;fillColor=none;fontSize=12;fontFamily=Helvetica;fontColor=default;" vertex="1" parent="1">
                    <mxGeometry x="625" y="460" width="110" height="30" as="geometry"/>
                </mxCell>
                <mxCell id="54" value="ข้อมูลการเช่า" style="text;html=1;align=center;verticalAlign=middle;resizable=0;points=[];autosize=1;strokeColor=none;fillColor=none;fontSize=12;fontFamily=Helvetica;fontColor=default;" vertex="1" parent="1">
                    <mxGeometry x="465" y="480" width="90" height="30" as="geometry"/>
                </mxCell>
                <mxCell id="55" value="D5" style="html=1;dashed=0;whitespace=wrap;shape=mxgraph.dfd.dataStoreID;align=left;spacingLeft=3;points=[[0,0],[0.5,0],[1,0],[0,0.5],[1,0.5],[0,1],[0.5,1],[1,1]];rounded=1;strokeColor=default;fontFamily=Helvetica;fontSize=12;fontColor=default;startSize=23;fillColor=default;" vertex="1" parent="1">
                    <mxGeometry x="605" y="550" width="120" height="30" as="geometry"/>
                </mxCell>
                <mxCell id="56" value="เเฟ้มข้อมูลสัญญา" style="text;html=1;align=center;verticalAlign=middle;resizable=0;points=[];autosize=1;strokeColor=none;fillColor=none;fontSize=12;fontFamily=Helvetica;fontColor=default;" vertex="1" parent="1">
                    <mxGeometry x="625" y="550" width="110" height="30" as="geometry"/>
                </mxCell>
                <mxCell id="59" value="ข้อมูลสัญญา" style="text;html=1;align=center;verticalAlign=middle;resizable=0;points=[];autosize=1;strokeColor=none;fillColor=none;fontSize=12;fontFamily=Helvetica;fontColor=default;" vertex="1" parent="1">
                    <mxGeometry x="475" y="520" width="90" height="30" as="geometry"/>
                </mxCell>
                <mxCell id="74" style="edgeStyle=none;html=1;exitX=1;exitY=0.25;exitDx=0;exitDy=0;exitPerimeter=0;entryX=0;entryY=0.75;entryDx=0;entryDy=0;entryPerimeter=0;fontFamily=Helvetica;fontSize=12;fontColor=default;startSize=23;" edge="1" parent="1" source="60" target="34">
                    <mxGeometry relative="1" as="geometry">
                        <Array as="points">
                            <mxPoint x="325" y="600"/>
                            <mxPoint x="325" y="540"/>
                        </Array>
                    </mxGeometry>
                </mxCell>
                <mxCell id="60" value="พนักงาน" style="rounded=0;whiteSpace=wrap;html=1;points=[[0,0.33,0,0,0],[0,0.67,0,0,0],[0.2,0,0,0,0],[0.2,1,0,0,0],[0.4,0,0,0,0],[0.4,1,0,0,0],[0.6,0,0,0,0],[0.6,1,0,0,0],[0.8,0,0,0,0],[0.8,1,0,0,0],[1,0.25,0,0,0],[1,0.5,0,0,0],[1,0.75,0,0,0]];" vertex="1" parent="1">
                    <mxGeometry x="125" y="580" width="80" height="80" as="geometry"/>
                </mxCell>
                <mxCell id="62" value="ข้อมูลลูกค้า" style="text;html=1;align=center;verticalAlign=middle;resizable=0;points=[];autosize=1;strokeColor=none;fillColor=none;fontSize=12;fontFamily=Helvetica;fontColor=default;" vertex="1" parent="1">
                    <mxGeometry x="223" y="580" width="80" height="30" as="geometry"/>
                </mxCell>
                <mxCell id="67" style="edgeStyle=none;html=1;exitX=0.4;exitY=0;exitDx=0;exitDy=0;exitPerimeter=0;entryX=0.75;entryY=1;entryDx=0;entryDy=0;entryPerimeter=0;fontFamily=Helvetica;fontSize=12;fontColor=default;startSize=23;" edge="1" parent="1" source="64" target="34">
                    <mxGeometry relative="1" as="geometry">
                        <Array as="points">
                            <mxPoint x="157" y="700"/>
                            <mxPoint x="435" y="700"/>
                        </Array>
                    </mxGeometry>
                </mxCell>
                <mxCell id="79" style="edgeStyle=none;html=1;exitX=0.6;exitY=0;exitDx=0;exitDy=0;exitPerimeter=0;entryX=0.2;entryY=0;entryDx=0;entryDy=0;entryPerimeter=0;fontFamily=Helvetica;fontSize=12;fontColor=default;startSize=23;" edge="1" parent="1" source="64" target="70">
                    <mxGeometry relative="1" as="geometry">
                        <Array as="points">
                            <mxPoint x="173" y="720"/>
                            <mxPoint x="349" y="720"/>
                        </Array>
                    </mxGeometry>
                </mxCell>
                <mxCell id="64" value="ผู้เช่า" style="rounded=0;whiteSpace=wrap;html=1;points=[[0.2,0,0,0,0],[0.4,0,0,0,0],[0.5,1,0,0,0],[0.6,0,0,0,0],[0.8,0,0,0,0],[1,0.5,0,0,0]];" vertex="1" parent="1">
                    <mxGeometry x="125" y="740" width="80" height="80" as="geometry"/>
                </mxCell>
                <mxCell id="69" value="เซ็นสัญญาเช่า" style="text;html=1;align=center;verticalAlign=middle;resizable=0;points=[];autosize=1;strokeColor=none;fillColor=none;fontSize=12;fontFamily=Helvetica;fontColor=default;" vertex="1" parent="1">
                    <mxGeometry x="243" y="680" width="90" height="30" as="geometry"/>
                </mxCell>
                <mxCell id="81" style="edgeStyle=none;html=1;entryX=1;entryY=0.5;entryDx=0;entryDy=0;entryPerimeter=0;fontFamily=Helvetica;fontSize=12;fontColor=default;startSize=23;" edge="1" parent="1" source="70" target="64">
                    <mxGeometry relative="1" as="geometry"/>
                </mxCell>
                <mxCell id="85" style="edgeStyle=none;html=1;exitX=0.25;exitY=1;exitDx=0;exitDy=0;exitPerimeter=0;fontFamily=Helvetica;fontSize=12;fontColor=default;startSize=23;entryX=0.5;entryY=1;entryDx=0;entryDy=0;entryPerimeter=0;" edge="1" parent="1" source="70" target="64">
                    <mxGeometry relative="1" as="geometry">
                        <mxPoint x="165" y="830" as="targetPoint"/>
                        <Array as="points">
                            <mxPoint x="355" y="840"/>
                            <mxPoint x="165" y="840"/>
                        </Array>
                    </mxGeometry>
                </mxCell>
                <mxCell id="88" style="edgeStyle=none;html=1;entryX=0;entryY=0.67;entryDx=0;entryDy=0;entryPerimeter=0;fontFamily=Helvetica;fontSize=12;fontColor=default;startSize=23;" edge="1" parent="1" source="70" target="60">
                    <mxGeometry relative="1" as="geometry">
                        <Array as="points">
                            <mxPoint x="385" y="860"/>
                            <mxPoint x="105" y="860"/>
                            <mxPoint x="105" y="634"/>
                        </Array>
                    </mxGeometry>
                </mxCell>
                <mxCell id="89" style="edgeStyle=none;html=1;exitX=0.75;exitY=1;exitDx=0;exitDy=0;exitPerimeter=0;entryX=0;entryY=0.33;entryDx=0;entryDy=0;entryPerimeter=0;fontFamily=Helvetica;fontSize=12;fontColor=default;startSize=23;" edge="1" parent="1" source="70" target="60">
                    <mxGeometry relative="1" as="geometry">
                        <Array as="points">
                            <mxPoint x="415" y="880"/>
                            <mxPoint x="85" y="880"/>
                            <mxPoint x="85" y="606"/>
                        </Array>
                    </mxGeometry>
                </mxCell>
                <mxCell id="70" value="4" style="swimlane;rounded=1;points=[[0,0.25,0,0,0],[0,0.5,0,0,0],[0,0.75,0,0,0],[0.2,0,0,0,0],[0.25,1,0,0,0],[0.4,0,0,0,0],[0.5,1,0,0,0],[0.6,0,0,0,0],[0.75,1,0,0,0],[0.8,0,0,0,0],[1,0.25,0,0,0],[1,0.5,0,0,0],[1,0.75,0,0,0]];startSize=23;" vertex="1" parent="1">
                    <mxGeometry x="325" y="740" width="120" height="80" as="geometry"/>
                </mxCell>
                <mxCell id="71" value="รับชำระเงิน" style="text;html=1;align=center;verticalAlign=middle;resizable=0;points=[];autosize=1;strokeColor=none;fillColor=none;" vertex="1" parent="70">
                    <mxGeometry x="20" y="40" width="80" height="30" as="geometry"/>
                </mxCell>
                <mxCell id="77" value="รายละเอียดลูกค้า" style="text;html=1;align=center;verticalAlign=middle;resizable=0;points=[];autosize=1;strokeColor=none;fillColor=none;fontSize=12;fontFamily=Helvetica;fontColor=default;" vertex="1" parent="1">
                    <mxGeometry x="265" y="600" width="110" height="30" as="geometry"/>
                </mxCell>
                <mxCell id="78" value="รายละเอียดการจอง" style="text;html=1;align=center;verticalAlign=middle;resizable=0;points=[];autosize=1;strokeColor=none;fillColor=none;fontSize=12;fontFamily=Helvetica;fontColor=default;" vertex="1" parent="1">
                    <mxGeometry x="265" y="620" width="120" height="30" as="geometry"/>
                </mxCell>
                <mxCell id="80" value="ชำระเงิน" style="text;html=1;align=center;verticalAlign=middle;resizable=0;points=[];autosize=1;strokeColor=none;fillColor=none;fontSize=12;fontFamily=Helvetica;fontColor=default;" vertex="1" parent="1">
                    <mxGeometry x="233" y="700" width="60" height="30" as="geometry"/>
                </mxCell>
                <mxCell id="82" value="ใบเสร็จชำระเงิน" style="text;html=1;align=center;verticalAlign=middle;resizable=0;points=[];autosize=1;strokeColor=none;fillColor=none;fontSize=12;fontFamily=Helvetica;fontColor=default;" vertex="1" parent="1">
                    <mxGeometry x="213" y="760" width="100" height="30" as="geometry"/>
                </mxCell>
                <mxCell id="86" value="รายละเอียดการชำระเงิน" style="text;html=1;align=center;verticalAlign=middle;resizable=0;points=[];autosize=1;strokeColor=none;fillColor=none;fontSize=12;fontFamily=Helvetica;fontColor=default;" vertex="1" parent="1">
                    <mxGeometry x="185" y="820" width="140" height="30" as="geometry"/>
                </mxCell>
                <mxCell id="91" value="รายละเอียดการรับชำระเงิน" style="text;html=1;align=center;verticalAlign=middle;resizable=0;points=[];autosize=1;strokeColor=none;fillColor=none;fontSize=12;fontFamily=Helvetica;fontColor=default;" vertex="1" parent="1">
                    <mxGeometry x="180" y="840" width="150" height="30" as="geometry"/>
                </mxCell>
                <mxCell id="92" value="รายละเอียดผู้เช่า" style="text;html=1;align=center;verticalAlign=middle;resizable=0;points=[];autosize=1;strokeColor=none;fillColor=none;fontSize=12;fontFamily=Helvetica;fontColor=default;" vertex="1" parent="1">
                    <mxGeometry x="205" y="860" width="100" height="30" as="geometry"/>
                </mxCell>
                <mxCell id="95" value="D6" style="html=1;dashed=0;whitespace=wrap;shape=mxgraph.dfd.dataStoreID;align=left;spacingLeft=3;points=[[0,0],[0.5,0],[1,0],[0,0.5],[1,0.5],[0,1],[0.5,1],[1,1]];rounded=1;strokeColor=default;fontFamily=Helvetica;fontSize=12;fontColor=default;startSize=23;fillColor=default;" vertex="1" parent="1">
                    <mxGeometry x="595" y="720" width="160" height="30" as="geometry"/>
                </mxCell>
                <mxCell id="96" value="เเฟ้มข้อมูลการรับชำระเงิน" style="text;html=1;align=center;verticalAlign=middle;resizable=0;points=[];autosize=1;strokeColor=none;fillColor=none;fontSize=12;fontFamily=Helvetica;fontColor=default;" vertex="1" parent="1">
                    <mxGeometry x="615" y="720" width="150" height="30" as="geometry"/>
                </mxCell>
                <mxCell id="97" value="ข้อมูลการรับชำระเงิน" style="text;html=1;align=center;verticalAlign=middle;resizable=0;points=[];autosize=1;strokeColor=none;fillColor=none;fontSize=12;fontFamily=Helvetica;fontColor=default;" vertex="1" parent="1">
                    <mxGeometry x="450" y="740" width="120" height="30" as="geometry"/>
                </mxCell>
                <mxCell id="98" value="D7" style="html=1;dashed=0;whitespace=wrap;shape=mxgraph.dfd.dataStoreID;align=left;spacingLeft=3;points=[[0,0],[0.5,0],[1,0],[0,0.5],[1,0.5],[0,1],[0.5,1],[1,1]];rounded=1;strokeColor=default;fontFamily=Helvetica;fontSize=12;fontColor=default;startSize=23;fillColor=default;" vertex="1" parent="1">
                    <mxGeometry x="595" y="810" width="130" height="30" as="geometry"/>
                </mxCell>
                <mxCell id="99" value="เเฟ้มข้อมูลการเช่า" style="text;html=1;align=center;verticalAlign=middle;resizable=0;points=[];autosize=1;strokeColor=none;fillColor=none;fontSize=12;fontFamily=Helvetica;fontColor=default;" vertex="1" parent="1">
                    <mxGeometry x="620" y="810" width="110" height="30" as="geometry"/>
                </mxCell>
                <mxCell id="100" value="ข้อมูลการเช่า" style="text;html=1;align=center;verticalAlign=middle;resizable=0;points=[];autosize=1;strokeColor=none;fillColor=none;fontSize=12;fontFamily=Helvetica;fontColor=default;" vertex="1" parent="1">
                    <mxGeometry x="455" y="780" width="90" height="30" as="geometry"/>
                </mxCell>
                <mxCell id="107" style="edgeStyle=none;html=1;exitX=0;exitY=0.67;exitDx=0;exitDy=0;exitPerimeter=0;entryX=1;entryY=0.67;entryDx=0;entryDy=0;entryPerimeter=0;fontFamily=Helvetica;fontSize=12;fontColor=default;startSize=23;" edge="1" parent="1" source="102" target="104">
                    <mxGeometry relative="1" as="geometry"/>
                </mxCell>
                <mxCell id="112" style="edgeStyle=none;html=1;entryX=0;entryY=0.5;entryDx=0;entryDy=0;fontFamily=Helvetica;fontSize=12;fontColor=default;startSize=23;" edge="1" parent="1" source="102" target="110">
                    <mxGeometry relative="1" as="geometry"/>
                </mxCell>
                <mxCell id="102" value="5" style="swimlane;rounded=1;points=[[0,0.33,0,0,0],[0,0.67,0,0,0],[0.2,0,0,0,0],[0.25,1,0,0,0],[0.4,0,0,0,0],[0.5,1,0,0,0],[0.6,0,0,0,0],[0.75,1,0,0,0],[0.8,0,0,0,0],[1,0.25,0,0,0],[1,0.5,0,0,0],[1,0.75,0,0,0]];startSize=23;" vertex="1" parent="1">
                    <mxGeometry x="323" y="901" width="120" height="80" as="geometry"/>
                </mxCell>
                <mxCell id="103" value="เเจ้งชำระเงิน" style="text;html=1;align=center;verticalAlign=middle;resizable=0;points=[];autosize=1;strokeColor=none;fillColor=none;" vertex="1" parent="102">
                    <mxGeometry x="15" y="40" width="90" height="30" as="geometry"/>
                </mxCell>
                <mxCell id="106" style="edgeStyle=none;html=1;exitX=1;exitY=0.33;exitDx=0;exitDy=0;exitPerimeter=0;entryX=0;entryY=0.33;entryDx=0;entryDy=0;entryPerimeter=0;fontFamily=Helvetica;fontSize=12;fontColor=default;startSize=23;" edge="1" parent="1" source="104" target="102">
                    <mxGeometry relative="1" as="geometry"/>
                </mxCell>
                <mxCell id="104" value="ผู้เช่า" style="rounded=0;whiteSpace=wrap;html=1;points=[[0.2,0,0,0,0],[0.4,0,0,0,0],[0.5,1,0,0,0],[0.6,0,0,0,0],[0.8,0,0,0,0],[1,0.33,0,0,0],[1,0.67,0,0,0]];" vertex="1" parent="1">
                    <mxGeometry x="45" y="901" width="80" height="80" as="geometry"/>
                </mxCell>
                <mxCell id="108" value="กรอกรายละเอียดการเเจ้งซ่อม" style="text;html=1;align=center;verticalAlign=middle;resizable=0;points=[];autosize=1;strokeColor=none;fillColor=none;fontSize=12;fontFamily=Helvetica;fontColor=default;" vertex="1" parent="1">
                    <mxGeometry x="135" y="901" width="170" height="30" as="geometry"/>
                </mxCell>
                <mxCell id="109" value="สถานะการเเจ้งซ่อม" style="text;html=1;align=center;verticalAlign=middle;resizable=0;points=[];autosize=1;strokeColor=none;fillColor=none;fontSize=12;fontFamily=Helvetica;fontColor=default;" vertex="1" parent="1">
                    <mxGeometry x="160" y="931" width="120" height="30" as="geometry"/>
                </mxCell>
                <mxCell id="114" style="edgeStyle=none;html=1;fontFamily=Helvetica;fontSize=12;fontColor=default;startSize=23;entryX=1;entryY=0.5;entryDx=0;entryDy=0;entryPerimeter=0;" edge="1" parent="1" source="110" target="102">
                    <mxGeometry relative="1" as="geometry">
                        <mxPoint x="445" y="971" as="targetPoint"/>
                    </mxGeometry>
                </mxCell>
                <mxCell id="110" value="D8" style="html=1;dashed=0;whitespace=wrap;shape=mxgraph.dfd.dataStoreID;align=left;spacingLeft=3;points=[[0,0],[0.5,0],[1,0],[0,0.5],[1,0.5],[0,1],[0.5,1],[1,1]];rounded=1;strokeColor=default;fontFamily=Helvetica;fontSize=12;fontColor=default;startSize=23;fillColor=default;" vertex="1" parent="1">
                    <mxGeometry x="565" y="926" width="130" height="30" as="geometry"/>
                </mxCell>
                <mxCell id="111" value="เเฟ้มข้อมูลการเเจ้งซ่อม" style="text;html=1;align=center;verticalAlign=middle;resizable=0;points=[];autosize=1;strokeColor=none;fillColor=none;fontSize=12;fontFamily=Helvetica;fontColor=default;" vertex="1" parent="1">
                    <mxGeometry x="590" y="926" width="140" height="30" as="geometry"/>
                </mxCell>
                <mxCell id="113" value="ข้อมูลการเเจ้งซ่อม" style="text;html=1;align=center;verticalAlign=middle;resizable=0;points=[];autosize=1;strokeColor=none;fillColor=none;fontSize=12;fontFamily=Helvetica;fontColor=default;" vertex="1" parent="1">
                    <mxGeometry x="450" y="921" width="110" height="30" as="geometry"/>
                </mxCell>
                <mxCell id="115" value="" style="edgeStyle=none;orthogonalLoop=1;jettySize=auto;html=1;endArrow=classic;startArrow=classic;endSize=8;startSize=8;fontFamily=Helvetica;fontSize=12;fontColor=default;exitX=1;exitY=0.75;exitDx=0;exitDy=0;exitPerimeter=0;entryX=0;entryY=0.5;entryDx=0;entryDy=0;" edge="1" parent="1" source="70" target="98">
                    <mxGeometry width="100" relative="1" as="geometry">
                        <mxPoint x="435" y="830" as="sourcePoint"/>
                        <mxPoint x="535" y="830" as="targetPoint"/>
                        <Array as="points">
                            <mxPoint x="565" y="800"/>
                            <mxPoint x="565" y="825"/>
                        </Array>
                    </mxGeometry>
                </mxCell>
                <mxCell id="118" value="" style="edgeStyle=none;orthogonalLoop=1;jettySize=auto;html=1;endArrow=classic;startArrow=classic;endSize=8;startSize=8;fontFamily=Helvetica;fontSize=12;fontColor=default;exitX=1;exitY=0.25;exitDx=0;exitDy=0;exitPerimeter=0;entryX=0;entryY=0.5;entryDx=0;entryDy=0;" edge="1" parent="1" source="70" target="95">
                    <mxGeometry width="100" relative="1" as="geometry">
                        <mxPoint x="525" y="740" as="sourcePoint"/>
                        <mxPoint x="625" y="740" as="targetPoint"/>
                        <Array as="points">
                            <mxPoint x="565" y="760"/>
                            <mxPoint x="565" y="735"/>
                        </Array>
                    </mxGeometry>
                </mxCell>
                <mxCell id="121" value="ข้อมูลการจอง" style="text;html=1;align=center;verticalAlign=middle;resizable=0;points=[];autosize=1;strokeColor=none;fillColor=none;fontSize=12;fontFamily=Helvetica;fontColor=default;" vertex="1" parent="1">
                    <mxGeometry x="695" y="150" width="90" height="30" as="geometry"/>
                </mxCell>
                <mxCell id="123" value="ข้อมูลการจอง" style="text;html=1;align=center;verticalAlign=middle;resizable=0;points=[];autosize=1;strokeColor=none;fillColor=none;fontSize=12;fontFamily=Helvetica;fontColor=default;" vertex="1" parent="1">
                    <mxGeometry x="605" y="500" width="90" height="30" as="geometry"/>
                </mxCell>
            </root>
        </mxGraphModel>
    </diagram>
</mxfile>